<?xml version="1.0" standalone="no"?>
<!DOCTYPE svg PUBLIC "-//W3C//DTD SVG 20010904//EN"
 "http://www.w3.org/TR/2001/REC-SVG-20010904/DTD/svg10.dtd">
<svg version="1.0" xmlns="http://www.w3.org/2000/svg"
 width="280.000000pt" height="280.000000pt" viewBox="0 0 280.000000 280.000000"
 preserveAspectRatio="xMidYMid meet">
<metadata>
Created by potrace 1.16, written by Peter Selinger 2001-2019
</metadata>
<g transform="translate(0.000000,280.000000) scale(0.100000,-0.100000)"
fill="#000000" stroke="none">
<path d="M0 1400 l0 -1400 1400 0 1400 0 0 1400 0 1400 -1400 0 -1400 0 0
-1400z m991 1177 c18 -12 44 -38 56 -56 22 -33 23 -42 23 -258 0 -252 -4 -272
-68 -321 l-35 -27 -242 0 -242 0 -37 29 c-62 47 -66 67 -66 317 0 207 1 224
21 259 12 20 38 47 58 58 34 20 50 22 267 22 224 0 232 -1 265 -23z m1429 8
c16 -8 42 -31 57 -52 l28 -36 3 -231 3 -231 -29 -46 c-48 -75 -65 -79 -324
-79 -215 0 -224 1 -261 23 -75 46 -77 52 -77 322 0 238 0 241 24 276 44 64 63
69 319 69 183 0 234 -3 257 -15z m-1423 -857 c68 -45 73 -65 73 -319 0 -218 0
-223 -25 -264 -41 -71 -59 -75 -327 -75 -231 0 -234 0 -269 24 -64 44 -69 66
-69 316 0 245 5 271 62 311 48 35 75 38 299 36 215 -2 216 -2 256 -29z m836
-1 c65 -49 67 -59 67 -319 0 -215 -2 -236 -20 -266 -11 -18 -34 -41 -52 -52
-30 -18 -51 -20 -266 -20 -260 0 -270 2 -319 67 l-28 36 -3 216 c-4 235 2 272
45 316 52 52 69 55 314 52 l226 -2 36 -28z m-842 -830 c18 -12 44 -38 56 -56
22 -33 23 -41 23 -263 0 -258 -4 -277 -68 -326 l-35 -27 -228 -3 c-260 -3
-279 0 -328 69 l-31 42 0 235 c0 220 1 237 21 272 12 20 38 47 58 58 34 20 50
22 267 22 224 0 232 -1 265 -23z m1449 8 c16 -8 42 -32 57 -52 l28 -36 0 -247
0 -247 -27 -35 c-49 -64 -69 -68 -318 -68 -208 0 -225 1 -260 21 -21 12 -47
39 -59 60 -21 37 -22 48 -19 281 3 232 4 244 25 274 42 59 64 64 316 64 183 0
234 -3 257 -15z"/>
<path d="M512 2468 c-17 -17 -17 -409 0 -426 17 -17 409 -17 426 0 17 17 17
409 0 426 -17 17 -409 17 -426 0z"/>
<path d="M1947 2473 c-13 -12 -8 -418 5 -431 9 -9 69 -12 209 -12 166 0 200 2
213 16 14 13 16 47 16 213 0 140 -3 200 -12 209 -13 13 -419 18 -431 5z"/>
<path d="M517 1627 c-16 -11 -17 -33 -15 -222 l3 -210 214 -3 c165 -2 216 1
223 10 4 7 8 104 8 215 0 190 -1 203 -19 213 -29 15 -393 13 -414 -3z"/>
<path d="M1347 1622 c-15 -16 -17 -46 -17 -214 0 -154 3 -198 14 -207 9 -8 77
-11 222 -9 l209 3 3 209 c2 145 -1 213 -9 222 -9 11 -53 14 -209 14 -178 0
-198 -2 -213 -18z"/>
<path d="M512 788 c-17 -17 -17 -419 0 -436 17 -17 409 -17 426 0 17 17 17
419 0 436 -17 17 -409 17 -426 0z"/>
<path d="M1973 793 c-18 -7 -19 -423 -1 -441 9 -9 70 -12 215 -12 190 0 203 1
213 19 15 29 13 414 -2 429 -9 9 -69 12 -212 11 -111 0 -207 -3 -213 -6z"/>
</g>
</svg>
